# xmcd
#
# Track frame offsets:
#	150
#	21438
#	43077
#	61822
#	80873
#	113866
#	135747
#	153826
#	175023
#	199223
#	225805
#
# Disc length: 3368 seconds
#
# Revision: 0
# Processed by: cddbd v1.5.2PL0 Copyright (c) Steve Scherf et al.
# Submitted via: EZCDAudioConverter 6.0.0.1
#
DISCID=8a0d260b
DTITLE=Sean Webster Band - Leave Your Heart At The Door
DYEAR=2017
DGENRE=Blues
TTITLE0=Give Me The Truth
TTITLE1=Wait Another Day
TTITLE2=Broken Man
TTITLE3=You Got To Know
TTITLE4=Start Again
TTITLE5=Hands Of Time
TTITLE6=Silence Echoes In My Heart
TTITLE7=You Can Say
TTITLE8=Leave Your Heart At The Door
TTITLE9=I Don't Wanna Talk About It
TTITLE10='til Summer Comes Around
EXTD=
EXTT0=
EXTT1=
EXTT2=
EXTT3=
EXTT4=
EXTT5=
EXTT6=
EXTT7=
EXTT8=
EXTT9=
EXTT10=
PLAYORDER=
